<?xml version="1.0" encoding="UTF-8"?>
<!DOCTYPE svg PUBLIC "-//W3C//DTD SVG 1.1//EN" "http://www.w3.org/Graphics/SVG/1.1/DTD/svg11.dtd">
<svg xmlns="http://www.w3.org/2000/svg" version="1.1" width="2256px" height="609px" style="shape-rendering:geometricPrecision; text-rendering:geometricPrecision; image-rendering:optimizeQuality; fill-rule:evenodd; clip-rule:evenodd" xmlns:xlink="http://www.w3.org/1999/xlink">
<g><path style="opacity:0.992" fill="#e51e29" d="M 222.5,106.5 C 239.503,106.333 256.503,106.5 273.5,107C 320.249,114.099 354.415,138.599 376,180.5C 396.856,228.486 391.856,273.486 361,315.5C 337.439,343.871 307.272,360.704 270.5,366C 254.524,367.225 238.524,367.725 222.5,367.5C 222.5,357.833 222.5,348.167 222.5,338.5C 203.167,338.5 183.833,338.5 164.5,338.5C 164.5,319.167 164.5,299.833 164.5,280.5C 150.167,280.5 135.833,280.5 121.5,280.5C 121.5,251.5 121.5,222.5 121.5,193.5C 135.833,193.5 150.167,193.5 164.5,193.5C 164.5,173.833 164.5,154.167 164.5,134.5C 183.833,134.5 203.167,134.5 222.5,134.5C 222.5,125.167 222.5,115.833 222.5,106.5 Z"/></g>
<g><path style="opacity:0.972" fill="#000054" d="M 442.5,119.5 C 488.515,119.094 534.515,119.594 580.5,121C 595.891,121.686 609.891,126.352 622.5,135C 636.922,149.854 641.422,167.354 636,187.5C 630.526,200.974 621.026,210.474 607.5,216C 594.704,220.448 581.704,223.782 568.5,226C 583.386,227.849 597.052,232.849 609.5,241C 619.409,249.645 625.576,260.479 628,273.5C 629.792,289.467 631.125,305.467 632,321.5C 635.743,333.577 643.909,340.077 656.5,341C 668.495,341.5 680.495,341.667 692.5,341.5C 692.5,271.5 692.5,201.5 692.5,131.5C 682.5,131.5 672.5,131.5 662.5,131.5C 662.5,127.5 662.5,123.5 662.5,119.5C 691.407,119.171 720.24,119.505 749,120.5C 765,172.5 781,224.5 797,276.5C 814.011,224.301 830.511,171.968 846.5,119.5C 875.5,119.5 904.5,119.5 933.5,119.5C 933.5,123.5 933.5,127.5 933.5,131.5C 923.5,131.5 913.5,131.5 903.5,131.5C 903.5,201.5 903.5,271.5 903.5,341.5C 913.5,341.5 923.5,341.5 933.5,341.5C 933.5,345.5 933.5,349.5 933.5,353.5C 898.5,353.5 863.5,353.5 828.5,353.5C 828.5,349.5 828.5,345.5 828.5,341.5C 838.5,341.5 848.5,341.5 858.5,341.5C 858.667,272.833 858.5,204.166 858,135.5C 835,207.5 812,279.5 789,351.5C 784.822,353.399 780.322,354.065 775.5,353.5C 752.976,281.093 730.143,208.76 707,136.5C 706.5,204.833 706.333,273.166 706.5,341.5C 716.5,341.5 726.5,341.5 736.5,341.5C 736.5,345.5 736.5,349.5 736.5,353.5C 701.832,353.667 667.165,353.5 632.5,353C 616.614,353.706 602.78,348.873 591,338.5C 586.249,331.92 583.249,324.587 582,316.5C 581.937,297.279 579.937,278.279 576,259.5C 572.86,247.027 565.027,239.193 552.5,236C 541.098,232.49 529.431,230.99 517.5,231.5C 517.5,268.167 517.5,304.833 517.5,341.5C 527.5,341.5 537.5,341.5 547.5,341.5C 547.5,345.5 547.5,349.5 547.5,353.5C 512.5,353.5 477.5,353.5 442.5,353.5C 442.5,349.5 442.5,345.5 442.5,341.5C 452.5,341.5 462.5,341.5 472.5,341.5C 472.5,271.5 472.5,201.5 472.5,131.5C 462.5,131.5 452.5,131.5 442.5,131.5C 442.5,127.5 442.5,123.5 442.5,119.5 Z M 517.5,131.5 C 532.864,131.186 548.198,131.686 563.5,133C 574.639,134.811 582.139,140.978 586,151.5C 590.405,167.525 590.405,183.525 586,199.5C 579.689,212.421 569.189,218.921 554.5,219C 542.171,219.5 529.838,219.667 517.5,219.5C 517.5,190.167 517.5,160.833 517.5,131.5 Z"/></g>
<g><path style="opacity:0.982" fill="#000054" d="M 952.5,119.5 C 987.5,119.5 1022.5,119.5 1057.5,119.5C 1057.5,123.5 1057.5,127.5 1057.5,131.5C 1047.5,131.5 1037.5,131.5 1027.5,131.5C 1027.5,201.5 1027.5,271.5 1027.5,341.5C 1037.5,341.5 1047.5,341.5 1057.5,341.5C 1057.5,345.5 1057.5,349.5 1057.5,353.5C 1022.5,353.5 987.5,353.5 952.5,353.5C 952.5,349.5 952.5,345.5 952.5,341.5C 962.5,341.5 972.5,341.5 982.5,341.5C 982.5,271.5 982.5,201.5 982.5,131.5C 972.5,131.5 962.5,131.5 952.5,131.5C 952.5,127.5 952.5,123.5 952.5,119.5 Z"/></g>
<g><path style="opacity:0.971" fill="#000054" d="M 1069.5,119.5 C 1131.83,119.5 1194.17,119.5 1256.5,119.5C 1257.68,140.515 1259.01,161.515 1260.5,182.5C 1256.5,182.5 1252.5,182.5 1248.5,182.5C 1247.46,168.314 1243.62,154.981 1237,142.5C 1231.97,136.232 1225.47,132.399 1217.5,131C 1206.88,129.688 1196.21,129.188 1185.5,129.5C 1185.5,200.167 1185.5,270.833 1185.5,341.5C 1196.17,341.5 1206.83,341.5 1217.5,341.5C 1217.5,345.5 1217.5,349.5 1217.5,353.5C 1181.17,353.5 1144.83,353.5 1108.5,353.5C 1108.5,349.5 1108.5,345.5 1108.5,341.5C 1119.17,341.5 1129.83,341.5 1140.5,341.5C 1140.5,270.833 1140.5,200.167 1140.5,129.5C 1130.12,129.162 1119.78,129.662 1109.5,131C 1097.76,133.106 1089.6,139.606 1085,150.5C 1081.54,160.611 1079.04,170.945 1077.5,181.5C 1073.55,182.491 1069.55,182.824 1065.5,182.5C 1067.04,161.518 1068.37,140.518 1069.5,119.5 Z"/></g>
<g><path style="opacity:0.991" fill="#e61f2a" d="M 1315.5,120.5 C 1588.17,120.5 1860.83,120.5 2133.5,120.5C 2133.5,197.833 2133.5,275.167 2133.5,352.5C 1860.83,352.5 1588.17,352.5 1315.5,352.5C 1315.5,275.167 1315.5,197.833 1315.5,120.5 Z"/></g>
<g><path style="opacity:1" fill="#fefbfb" d="M 1391.5,149.5 C 1401.04,148.884 1410.04,150.717 1418.5,155C 1420.38,156.543 1421.88,158.376 1423,160.5C 1423.5,164.486 1423.67,168.486 1423.5,172.5C 1419.83,172.5 1416.17,172.5 1412.5,172.5C 1413.57,167.402 1411.57,164.236 1406.5,163C 1386.21,159.288 1376.37,167.788 1377,188.5C 1382.91,208.033 1395.08,213.2 1413.5,204C 1415.61,202.859 1417.44,201.359 1419,199.5C 1421.54,202.081 1423.7,204.914 1425.5,208C 1424.56,209.944 1423.23,211.611 1421.5,213C 1402.48,224.71 1385.31,222.543 1370,206.5C 1361.02,191.214 1361.35,176.214 1371,161.5C 1376.77,155.535 1383.61,151.535 1391.5,149.5 Z"/></g>
<g><path style="opacity:1" fill="#fffbfb" d="M 1727.5,150.5 C 1727.5,153.833 1727.5,157.167 1727.5,160.5C 1725.59,160.216 1723.92,160.549 1722.5,161.5C 1718.1,162.278 1716.1,164.944 1716.5,169.5C 1719.83,169.5 1723.17,169.5 1726.5,169.5C 1726.5,173.167 1726.5,176.833 1726.5,180.5C 1723.17,180.5 1719.83,180.5 1716.5,180.5C 1715.5,192.989 1715.17,205.656 1715.5,218.5C 1711.83,218.5 1708.17,218.5 1704.5,218.5C 1704.83,205.656 1704.5,192.989 1703.5,180.5C 1702.08,179.549 1700.41,179.216 1698.5,179.5C 1698.5,176.5 1698.5,173.5 1698.5,170.5C 1700.41,170.784 1702.08,170.451 1703.5,169.5C 1704.92,155.092 1712.92,148.759 1727.5,150.5 Z"/></g>
<g><path style="opacity:1" fill="#f8bbbe" d="M 1727.5,150.5 C 1728.48,153.962 1728.81,157.629 1728.5,161.5C 1726.5,161.5 1724.5,161.5 1722.5,161.5C 1723.92,160.549 1725.59,160.216 1727.5,160.5C 1727.5,157.167 1727.5,153.833 1727.5,150.5 Z"/></g>
<g><path style="opacity:1" fill="#fef5f5" d="M 1551.5,156.5 C 1555.83,156.5 1560.17,156.5 1564.5,156.5C 1564.5,160.833 1564.5,165.167 1564.5,169.5C 1568.17,169.5 1571.83,169.5 1575.5,169.5C 1575.5,173.167 1575.5,176.833 1575.5,180.5C 1571.83,180.5 1568.17,180.5 1564.5,180.5C 1564.33,188.174 1564.5,195.841 1565,203.5C 1567.53,207.907 1571.36,209.574 1576.5,208.5C 1576.5,212.167 1576.5,215.833 1576.5,219.5C 1564.66,221.778 1556.49,217.444 1552,206.5C 1551.5,197.84 1551.33,189.173 1551.5,180.5C 1549.5,180.5 1547.5,180.5 1545.5,180.5C 1545.5,176.833 1545.5,173.167 1545.5,169.5C 1547.5,169.5 1549.5,169.5 1551.5,169.5C 1551.5,165.167 1551.5,160.833 1551.5,156.5 Z"/></g>
<g><path style="opacity:1" fill="#fef9f9" d="M 1450.5,168.5 C 1470.17,167.5 1479.5,176.833 1478.5,196.5C 1467.17,196.5 1455.83,196.5 1444.5,196.5C 1445.18,202.356 1448.18,206.523 1453.5,209C 1460.49,210.17 1466.82,208.67 1472.5,204.5C 1474.67,206.83 1476.33,209.497 1477.5,212.5C 1465.29,222.515 1452.62,223.015 1439.5,214C 1430.3,203.022 1429.13,191.189 1436,178.5C 1439.98,173.774 1444.81,170.441 1450.5,168.5 Z"/></g>
<g><path style="opacity:1" fill="#fef9f9" d="M 1541.5,208.5 C 1541.5,211.833 1541.5,215.167 1541.5,218.5C 1536.83,218.5 1532.17,218.5 1527.5,218.5C 1525.59,218.426 1524.42,217.426 1524,215.5C 1523.67,205.167 1523.33,194.833 1523,184.5C 1521.47,181.484 1518.97,180.151 1515.5,180.5C 1507.08,181.331 1502.74,185.997 1502.5,194.5C 1501.51,202.316 1501.17,210.316 1501.5,218.5C 1497.83,218.5 1494.17,218.5 1490.5,218.5C 1490.83,205.989 1490.5,193.655 1489.5,181.5C 1487.74,180.539 1485.74,180.205 1483.5,180.5C 1483.21,176.894 1483.54,173.394 1484.5,170C 1488.83,169.333 1493.17,169.333 1497.5,170C 1500.79,171.358 1502.29,173.858 1502,177.5C 1511.47,166.817 1521.8,165.817 1533,174.5C 1534.56,176.957 1535.56,179.624 1536,182.5C 1536.5,191.16 1536.67,199.827 1536.5,208.5C 1538.17,208.5 1539.83,208.5 1541.5,208.5 Z"/></g>
<g><path style="opacity:1" fill="#fefcfc" d="M 1598.5,173.5 C 1598.34,175.857 1598.5,178.19 1599,180.5C 1599.72,179.956 1600.22,179.289 1600.5,178.5C 1603.73,171.882 1609.06,168.882 1616.5,169.5C 1616.5,173.5 1616.5,177.5 1616.5,181.5C 1609.23,180.945 1604.06,183.945 1601,190.5C 1599.58,200.086 1599.08,209.753 1599.5,219.5C 1595.5,219.5 1591.5,219.5 1587.5,219.5C 1587.67,206.829 1587.5,194.162 1587,181.5C 1585.3,180.594 1583.47,180.261 1581.5,180.5C 1581.5,177.167 1581.5,173.833 1581.5,170.5C 1586.84,170.334 1592.18,170.501 1597.5,171C 1598.25,171.671 1598.59,172.504 1598.5,173.5 Z"/></g>
<g><path style="opacity:1" fill="#fefafa" d="M 1666.5,196.5 C 1655.17,196.5 1643.83,196.5 1632.5,196.5C 1632.26,197.791 1632.6,198.791 1633.5,199.5C 1636.76,207.631 1642.76,210.797 1651.5,209C 1654.78,208.027 1657.78,206.527 1660.5,204.5C 1663.61,206.755 1665.11,209.755 1665,213.5C 1654.07,221.735 1642.57,222.568 1630.5,216C 1621.33,207.826 1618.17,197.66 1621,185.5C 1628.06,170.363 1639.56,165.53 1655.5,171C 1664.68,177.015 1668.35,185.515 1666.5,196.5 Z"/></g>
<g><path style="opacity:1" fill="#fefafa" d="M 1752.5,168.5 C 1775.01,168.227 1785.18,179.227 1783,201.5C 1777.38,215.732 1766.88,221.899 1751.5,220C 1734.65,215.145 1727.81,203.978 1731,186.5C 1734.97,176.609 1742.14,170.609 1752.5,168.5 Z"/></g>
<g><path style="opacity:1" fill="#fff8f8" d="M 1789.5,180.5 C 1789.5,177.167 1789.5,173.833 1789.5,170.5C 1793.83,170.5 1798.17,170.5 1802.5,170.5C 1804.02,170.511 1805.18,171.177 1806,172.5C 1806.33,174.833 1806.67,177.167 1807,179.5C 1810.55,172.112 1816.38,168.779 1824.5,169.5C 1824.5,173.5 1824.5,177.5 1824.5,181.5C 1816.35,180.481 1810.85,183.814 1808,191.5C 1807.5,200.827 1807.33,210.161 1807.5,219.5C 1803.17,219.5 1798.83,219.5 1794.5,219.5C 1794.67,206.829 1794.5,194.162 1794,181.5C 1792.64,180.62 1791.14,180.286 1789.5,180.5 Z"/></g>
<g><path style="opacity:1" fill="#f7acb0" d="M 1703.5,169.5 C 1702.08,170.451 1700.41,170.784 1698.5,170.5C 1698.5,173.5 1698.5,176.5 1698.5,179.5C 1700.41,179.216 1702.08,179.549 1703.5,180.5C 1701.5,180.5 1699.5,180.5 1697.5,180.5C 1697.5,176.833 1697.5,173.167 1697.5,169.5C 1699.5,169.5 1701.5,169.5 1703.5,169.5 Z"/></g>
<g><path style="opacity:1" fill="#f7b1b5" d="M 1802.5,170.5 C 1798.17,170.5 1793.83,170.5 1789.5,170.5C 1789.5,173.833 1789.5,177.167 1789.5,180.5C 1788.52,177.038 1788.19,173.371 1788.5,169.5C 1793.36,169.181 1798.03,169.514 1802.5,170.5 Z"/></g>
<g><path style="opacity:1" fill="#f28d93" d="M 1598.5,173.5 C 1599.17,175.167 1599.83,176.833 1600.5,178.5C 1600.22,179.289 1599.72,179.956 1599,180.5C 1598.5,178.19 1598.34,175.857 1598.5,173.5 Z"/></g>
<g><path style="opacity:1" fill="#e6262f" d="M 1465.5,187.5 C 1458.65,187.824 1451.98,187.491 1445.5,186.5C 1448.59,179.126 1453.93,176.96 1461.5,180C 1464.02,181.883 1465.36,184.383 1465.5,187.5 Z"/></g>
<g><path style="opacity:1" fill="#e6252e" d="M 1653.5,186.5 C 1647.02,187.491 1640.35,187.824 1633.5,187.5C 1636.52,178.825 1642.19,176.491 1650.5,180.5C 1652.42,182.071 1653.42,184.071 1653.5,186.5 Z"/></g>
<g><path style="opacity:1" fill="#e6242d" d="M 1752.5,179.5 C 1765.95,178.785 1772.12,185.118 1771,198.5C 1766.44,209.02 1758.94,211.853 1748.5,207C 1741.99,200.749 1740.82,193.582 1745,185.5C 1747.11,182.879 1749.61,180.879 1752.5,179.5 Z"/></g>
<g><path style="opacity:1" fill="#f8c6c9" d="M 1703.5,180.5 C 1704.5,192.989 1704.83,205.656 1704.5,218.5C 1708.17,218.5 1711.83,218.5 1715.5,218.5C 1715.17,205.656 1715.5,192.989 1716.5,180.5C 1716.5,193.5 1716.5,206.5 1716.5,219.5C 1712.17,219.5 1707.83,219.5 1703.5,219.5C 1703.5,206.5 1703.5,193.5 1703.5,180.5 Z"/></g>
<g><path style="opacity:1" fill="#f39096" d="M 1445.5,186.5 C 1451.98,187.491 1458.65,187.824 1465.5,187.5C 1458.66,188.819 1451.66,188.819 1444.5,187.5C 1444.62,186.893 1444.96,186.56 1445.5,186.5 Z"/></g>
<g><path style="opacity:1" fill="#f39297" d="M 1653.5,186.5 C 1654.04,186.56 1654.38,186.893 1654.5,187.5C 1647.34,188.819 1640.34,188.819 1633.5,187.5C 1640.35,187.824 1647.02,187.491 1653.5,186.5 Z"/></g>
<g><path style="opacity:1" fill="#f7b3b6" d="M 1489.5,181.5 C 1490.5,193.655 1490.83,205.989 1490.5,218.5C 1494.17,218.5 1497.83,218.5 1501.5,218.5C 1501.17,210.316 1501.51,202.316 1502.5,194.5C 1502.5,202.833 1502.5,211.167 1502.5,219.5C 1498.17,219.5 1493.83,219.5 1489.5,219.5C 1489.5,206.833 1489.5,194.167 1489.5,181.5 Z"/></g>
<g><path style="opacity:1" fill="#ec5a62" d="M 1666.5,196.5 C 1655.3,196.841 1644.3,197.841 1633.5,199.5C 1632.6,198.791 1632.26,197.791 1632.5,196.5C 1643.83,196.5 1655.17,196.5 1666.5,196.5 Z"/></g>
<g><path style="opacity:1" fill="#f8c0c3" d="M 1541.5,208.5 C 1542.48,211.962 1542.81,215.629 1542.5,219.5C 1537.31,219.821 1532.31,219.487 1527.5,218.5C 1532.17,218.5 1536.83,218.5 1541.5,218.5C 1541.5,215.167 1541.5,211.833 1541.5,208.5 Z"/></g>
<g><path style="opacity:1" fill="#f7b2b6" d="M 1378.5,250.5 C 1373.5,250.5 1368.5,250.5 1363.5,250.5C 1363.5,253.833 1363.5,257.167 1363.5,260.5C 1362.52,257.038 1362.19,253.371 1362.5,249.5C 1368.03,249.179 1373.36,249.512 1378.5,250.5 Z"/></g>
<g><path style="opacity:1" fill="#f8c2c5" d="M 1413.5,250.5 C 1418.64,249.512 1423.97,249.179 1429.5,249.5C 1429.81,253.371 1429.48,257.038 1428.5,260.5C 1428.5,257.167 1428.5,253.833 1428.5,250.5C 1423.5,250.5 1418.5,250.5 1413.5,250.5 Z"/></g>
<g><path style="opacity:1" fill="#f8c1c4" d="M 1486.5,250.5 C 1481.83,250.5 1477.17,250.5 1472.5,250.5C 1472.5,253.5 1472.5,256.5 1472.5,259.5C 1473.79,259.263 1474.79,259.596 1475.5,260.5C 1474.17,260.5 1472.83,260.5 1471.5,260.5C 1471.5,256.833 1471.5,253.167 1471.5,249.5C 1476.69,249.179 1481.69,249.513 1486.5,250.5 Z"/></g>
<g><path style="opacity:1" fill="#f8b9bc" d="M 1708.5,250.5 C 1696.83,250.5 1685.17,250.5 1673.5,250.5C 1673.5,253.833 1673.5,257.167 1673.5,260.5C 1672.52,257.038 1672.19,253.371 1672.5,249.5C 1684.68,249.172 1696.68,249.505 1708.5,250.5 Z"/></g>
<g><path style="opacity:1" fill="#fff6f6" d="M 1378.5,250.5 C 1380.41,250.574 1381.58,251.574 1382,253.5C 1382.33,268.833 1382.67,284.167 1383,299.5C 1388.42,307.831 1395.58,309.664 1404.5,305C 1406.38,303.457 1407.88,301.624 1409,299.5C 1409.33,284.833 1409.67,270.167 1410,255.5C 1410.22,253.027 1411.39,251.36 1413.5,250.5C 1418.5,250.5 1423.5,250.5 1428.5,250.5C 1428.5,253.833 1428.5,257.167 1428.5,260.5C 1426.83,260.5 1425.17,260.5 1423.5,260.5C 1423.67,273.171 1423.5,285.838 1423,298.5C 1419.27,312.223 1410.27,319.223 1396,319.5C 1382.49,319.638 1373.82,313.304 1370,300.5C 1369.67,287.5 1369.33,274.5 1369,261.5C 1367.3,260.594 1365.47,260.261 1363.5,260.5C 1363.5,257.167 1363.5,253.833 1363.5,250.5C 1368.5,250.5 1373.5,250.5 1378.5,250.5 Z"/></g>
<g><path style="opacity:1" fill="#fefbfb" d="M 1486.5,250.5 C 1488.5,250.5 1489.5,251.5 1489.5,253.5C 1489.17,260.2 1489.5,266.866 1490.5,273.5C 1491.11,273.376 1491.44,273.043 1491.5,272.5C 1506.07,263.939 1517.24,267.273 1525,282.5C 1528.38,294.798 1525.88,305.632 1517.5,315C 1507.87,321.408 1498.7,320.908 1490,313.5C 1489.51,315.134 1489.34,316.801 1489.5,318.5C 1485.5,318.5 1481.5,318.5 1477.5,318.5C 1478.15,298.804 1477.49,279.471 1475.5,260.5C 1474.79,259.596 1473.79,259.263 1472.5,259.5C 1472.5,256.5 1472.5,253.5 1472.5,250.5C 1477.17,250.5 1481.83,250.5 1486.5,250.5 Z"/></g>
<g><path style="opacity:1" fill="#fefcfc" d="M 1708.5,250.5 C 1722.37,254.216 1727.54,263.216 1724,277.5C 1722.42,282.578 1719.25,286.245 1714.5,288.5C 1718.17,293.844 1721.34,299.51 1724,305.5C 1725.44,307.155 1727.28,307.822 1729.5,307.5C 1729.5,311.167 1729.5,314.833 1729.5,318.5C 1725.03,318.867 1720.7,318.367 1716.5,317C 1711.7,309.903 1707.53,302.403 1704,294.5C 1700.42,292.71 1696.58,292.043 1692.5,292.5C 1691.51,300.65 1691.17,308.983 1691.5,317.5C 1687.5,317.5 1683.5,317.5 1679.5,317.5C 1679.5,298.5 1679.5,279.5 1679.5,260.5C 1677.5,260.5 1675.5,260.5 1673.5,260.5C 1673.5,257.167 1673.5,253.833 1673.5,250.5C 1685.17,250.5 1696.83,250.5 1708.5,250.5 Z"/></g>
<g><path style="opacity:1" fill="#fff6f6" d="M 2026.5,249.5 C 2031.51,249.334 2036.51,249.501 2041.5,250C 2042.33,250.833 2043.17,251.667 2044,252.5C 2044.33,260.5 2044.67,268.5 2045,276.5C 2051.97,267.268 2060.8,265.102 2071.5,270C 2074.87,272.365 2077.04,275.532 2078,279.5C 2078.33,288.5 2078.67,297.5 2079,306.5C 2080.7,307.406 2082.53,307.739 2084.5,307.5C 2084.5,311.167 2084.5,314.833 2084.5,318.5C 2079.49,318.666 2074.49,318.499 2069.5,318C 2068.67,317.167 2067.83,316.333 2067,315.5C 2065.73,304.572 2065.07,293.572 2065,282.5C 2055.89,277.03 2049.22,279.363 2045,289.5C 2044.5,299.161 2044.33,308.828 2044.5,318.5C 2040.17,318.5 2035.83,318.5 2031.5,318.5C 2031.5,299.167 2031.5,279.833 2031.5,260.5C 2029.83,260.5 2028.17,260.5 2026.5,260.5C 2026.5,256.833 2026.5,253.167 2026.5,249.5 Z"/></g>
<g><path style="opacity:1" fill="#f28b91" d="M 1489.5,253.5 C 1490.17,259.833 1490.83,266.167 1491.5,272.5C 1491.44,273.043 1491.11,273.376 1490.5,273.5C 1489.5,266.866 1489.17,260.2 1489.5,253.5 Z"/></g>
<g><path style="opacity:1" fill="#ec565f" d="M 1673.5,260.5 C 1675.5,260.5 1677.5,260.5 1679.5,260.5C 1679.5,279.5 1679.5,298.5 1679.5,317.5C 1679.5,317.833 1679.5,318.167 1679.5,318.5C 1678.5,299.674 1678.17,280.674 1678.5,261.5C 1676.59,261.784 1674.92,261.451 1673.5,260.5 Z"/></g>
<g><path style="opacity:1" fill="#e6232d" d="M 1692.5,260.5 C 1697.63,260.112 1702.63,260.612 1707.5,262C 1710.88,264.065 1712.21,267.065 1711.5,271C 1712.05,275.447 1710.38,278.781 1706.5,281C 1701.85,281.499 1697.18,281.666 1692.5,281.5C 1692.5,274.5 1692.5,267.5 1692.5,260.5 Z"/></g>
<g><path style="opacity:1" fill="#fff8f9" d="M 1433.5,268.5 C 1438.96,268.103 1444.29,268.603 1449.5,270C 1451.16,272.507 1451.99,275.341 1452,278.5C 1455.52,271.15 1461.35,267.816 1469.5,268.5C 1469.5,272.5 1469.5,276.5 1469.5,280.5C 1461.73,279.468 1456.23,282.468 1453,289.5C 1451.68,299.116 1451.18,308.783 1451.5,318.5C 1447.5,318.5 1443.5,318.5 1439.5,318.5C 1439.67,305.829 1439.5,293.162 1439,280.5C 1437.3,279.594 1435.47,279.261 1433.5,279.5C 1433.5,275.833 1433.5,272.167 1433.5,268.5 Z"/></g>
<g><path style="opacity:1" fill="#fff9f9" d="M 1580.5,307.5 C 1580.5,310.833 1580.5,314.167 1580.5,317.5C 1576.17,317.5 1571.83,317.5 1567.5,317.5C 1564.81,316.976 1563.31,315.309 1563,312.5C 1555.47,320.375 1546.97,321.542 1537.5,316C 1527.97,301.7 1531.64,292.367 1548.5,288C 1553.15,287.501 1557.82,287.334 1562.5,287.5C 1562.3,279.045 1557.97,275.878 1549.5,278C 1548.62,278.708 1547.95,279.542 1547.5,280.5C 1544.17,282.298 1540.5,282.964 1536.5,282.5C 1536.5,280.167 1536.5,277.833 1536.5,275.5C 1538.94,270.768 1542.94,268.268 1548.5,268C 1556.01,266.652 1563.01,267.986 1569.5,272C 1572.16,274.669 1574,277.836 1575,281.5C 1575.5,290.16 1575.67,298.827 1575.5,307.5C 1577.17,307.5 1578.83,307.5 1580.5,307.5 Z"/></g>
<g><path style="opacity:1" fill="#fff9f9" d="M 1642.5,307.5 C 1642.5,310.833 1642.5,314.167 1642.5,317.5C 1637.83,317.5 1633.17,317.5 1628.5,317.5C 1626.59,317.426 1625.42,316.426 1625,314.5C 1624.67,304.167 1624.33,293.833 1624,283.5C 1622.47,280.484 1619.97,279.151 1616.5,279.5C 1610.3,279.683 1606.13,282.683 1604,288.5C 1603.5,298.494 1603.33,308.494 1603.5,318.5C 1599.17,318.5 1594.83,318.5 1590.5,318.5C 1590.67,305.829 1590.5,293.162 1590,280.5C 1588.64,279.62 1587.14,279.286 1585.5,279.5C 1585.5,276.167 1585.5,272.833 1585.5,269.5C 1589.83,269.5 1594.17,269.5 1598.5,269.5C 1601.84,270.484 1603.34,272.817 1603,276.5C 1610.92,266.787 1620.42,264.954 1631.5,271C 1634.91,274.787 1636.75,279.287 1637,284.5C 1637.5,292.159 1637.67,299.826 1637.5,307.5C 1639.17,307.5 1640.83,307.5 1642.5,307.5 Z"/></g>
<g><path style="opacity:1" fill="#fef9fa" d="M 1779.5,295.5 C 1768.17,295.5 1756.83,295.5 1745.5,295.5C 1745.26,296.791 1745.6,297.791 1746.5,298.5C 1749.49,307.165 1755.49,310.331 1764.5,308C 1767.78,307.027 1770.78,305.527 1773.5,303.5C 1775.53,305.722 1777.2,308.222 1778.5,311C 1776.65,313.943 1773.98,315.943 1770.5,317C 1751.38,323.025 1738.88,316.525 1733,297.5C 1732.37,276.467 1742.53,266.634 1763.5,268C 1776.1,272.802 1781.44,281.968 1779.5,295.5 Z"/></g>
<g><path style="opacity:1" fill="#fef7f8" d="M 1799.5,267.5 C 1806.51,266.907 1813.17,268.074 1819.5,271C 1823.04,274.387 1824.37,278.553 1823.5,283.5C 1819.83,283.5 1816.17,283.5 1812.5,283.5C 1812.53,278.988 1810.2,276.988 1805.5,277.5C 1798.92,278.32 1797.92,281.154 1802.5,286C 1810.08,288.183 1816.91,291.683 1823,296.5C 1826.88,304.851 1825.05,311.684 1817.5,317C 1806.12,321.606 1795.95,319.772 1787,311.5C 1787.37,308.091 1788.87,305.091 1791.5,302.5C 1796.41,307.794 1802.41,309.961 1809.5,309C 1813.04,307.174 1813.37,304.84 1810.5,302C 1804.92,299.14 1799.25,296.474 1793.5,294C 1782.81,282.365 1784.81,273.531 1799.5,267.5 Z"/></g>
<g><path style="opacity:1" fill="#fef9f9" d="M 1850.5,267.5 C 1869.7,267.029 1878.7,276.363 1877.5,295.5C 1866.5,295.5 1855.5,295.5 1844.5,295.5C 1846.1,305.81 1852.1,309.977 1862.5,308C 1866.13,307.436 1869.29,305.936 1872,303.5C 1874.08,305.993 1875.91,308.659 1877.5,311.5C 1867.24,320.27 1855.91,321.77 1843.5,316C 1832.22,307.418 1828.72,296.252 1833,282.5C 1836.89,275.103 1842.72,270.103 1850.5,267.5 Z"/></g>
<g><path style="opacity:1" fill="#fef9f9" d="M 1899.5,267.5 C 1908.46,266.03 1916.46,268.03 1923.5,273.5C 1924.92,275.336 1926.09,277.336 1927,279.5C 1927.33,288.5 1927.67,297.5 1928,306.5C 1929.7,307.406 1931.53,307.739 1933.5,307.5C 1933.5,311.167 1933.5,314.833 1933.5,318.5C 1928.82,318.666 1924.15,318.499 1919.5,318C 1917.23,316.442 1916.07,314.276 1916,311.5C 1908.94,320.329 1900.44,321.829 1890.5,316C 1883.44,309.26 1882.78,301.927 1888.5,294C 1896.69,288.661 1905.69,286.494 1915.5,287.5C 1914.89,278.516 1910.22,275.516 1901.5,278.5C 1900.55,280.045 1900.21,281.712 1900.5,283.5C 1896.5,283.5 1892.5,283.5 1888.5,283.5C 1888.34,280.482 1888.5,277.482 1889,274.5C 1892,271.262 1895.5,268.929 1899.5,267.5 Z"/></g>
<g><path style="opacity:1" fill="#fff9f9" d="M 1937.5,268.5 C 1942.96,268.103 1948.29,268.603 1953.5,270C 1955.16,272.507 1955.99,275.341 1956,278.5C 1959.52,271.15 1965.35,267.816 1973.5,268.5C 1973.5,272.5 1973.5,276.5 1973.5,280.5C 1965.73,279.468 1960.23,282.468 1957,289.5C 1955.58,299.086 1955.08,308.753 1955.5,318.5C 1951.5,318.5 1947.5,318.5 1943.5,318.5C 1943.67,305.829 1943.5,293.162 1943,280.5C 1941.3,279.594 1939.47,279.261 1937.5,279.5C 1937.5,275.833 1937.5,272.167 1937.5,268.5 Z"/></g>
<g><path style="opacity:1" fill="#fef9f9" d="M 1996.5,267.5 C 2003.49,266.907 2010.16,268.074 2016.5,271C 2020.21,274.651 2021.54,279.151 2020.5,284.5C 2016.83,284.5 2013.17,284.5 2009.5,284.5C 2009.82,282.278 2009.16,280.444 2007.5,279C 1994.02,277.813 1987.85,283.98 1989,297.5C 1992.4,305.787 1998.57,309.287 2007.5,308C 2011.38,306.811 2014.88,304.978 2018,302.5C 2021.35,305.013 2022.85,308.18 2022.5,312C 2008.54,322.365 1995.04,321.865 1982,310.5C 1971.21,290.711 1976.04,276.378 1996.5,267.5 Z"/></g>
<g><path style="opacity:1" fill="#f7b1b5" d="M 1598.5,269.5 C 1594.17,269.5 1589.83,269.5 1585.5,269.5C 1585.5,272.833 1585.5,276.167 1585.5,279.5C 1584.52,276.038 1584.19,272.371 1584.5,268.5C 1589.36,268.181 1594.03,268.514 1598.5,269.5 Z"/></g>
<g><path style="opacity:1" fill="#e6242d" d="M 1766.5,284.5 C 1760.25,286.459 1753.58,287.126 1746.5,286.5C 1749.17,278.331 1754.5,275.831 1762.5,279C 1764.46,280.451 1765.8,282.284 1766.5,284.5 Z"/></g>
<g><path style="opacity:1" fill="#e6272f" d="M 1851.5,277.5 C 1858.89,276.024 1863.56,278.857 1865.5,286C 1858.5,286.667 1851.5,286.667 1844.5,286C 1845.97,282.369 1848.31,279.536 1851.5,277.5 Z"/></g>
<g><path style="opacity:1" fill="#e6252d" d="M 1497.5,278.5 C 1505.19,277.259 1510.36,280.259 1513,287.5C 1514.38,293.993 1513.38,299.993 1510,305.5C 1499.9,311.449 1493.23,308.782 1490,297.5C 1488.31,289.38 1490.81,283.046 1497.5,278.5 Z"/></g>
<g><path style="opacity:1" fill="#f8c1c4" d="M 1536.5,275.5 C 1536.5,277.833 1536.5,280.167 1536.5,282.5C 1540.5,282.964 1544.17,282.298 1547.5,280.5C 1547.5,281.5 1547.5,282.5 1547.5,283.5C 1543.5,283.5 1539.5,283.5 1535.5,283.5C 1535.19,280.615 1535.53,277.948 1536.5,275.5 Z"/></g>
<g><path style="opacity:1" fill="#f3959a" d="M 1766.5,284.5 C 1767.4,285.209 1767.74,286.209 1767.5,287.5C 1760.31,287.825 1753.31,287.491 1746.5,286.5C 1753.58,287.126 1760.25,286.459 1766.5,284.5 Z"/></g>
<g><path style="opacity:1" fill="#f8c6c9" d="M 1692.5,292.5 C 1692.5,301.167 1692.5,309.833 1692.5,318.5C 1688.17,318.5 1683.83,318.5 1679.5,318.5C 1679.5,318.167 1679.5,317.833 1679.5,317.5C 1683.5,317.5 1687.5,317.5 1691.5,317.5C 1691.17,308.983 1691.51,300.65 1692.5,292.5 Z"/></g>
<g><path style="opacity:1" fill="#ec5961" d="M 1779.5,295.5 C 1768.3,295.841 1757.3,296.841 1746.5,298.5C 1745.6,297.791 1745.26,296.791 1745.5,295.5C 1756.83,295.5 1768.17,295.5 1779.5,295.5 Z"/></g>
<g><path style="opacity:1" fill="#e72b32" d="M 1553.5,295.5 C 1556.5,295.5 1559.5,295.5 1562.5,295.5C 1562.46,306.668 1557.13,310.835 1546.5,308C 1543.83,305 1543.83,302 1546.5,299C 1548.93,297.787 1551.26,296.621 1553.5,295.5 Z"/></g>
<g><path style="opacity:1" fill="#e72931" d="M 1906.5,295.5 C 1909.5,295.5 1912.5,295.5 1915.5,295.5C 1914.81,306.054 1909.48,310.221 1899.5,308C 1896.57,304.304 1896.91,300.971 1900.5,298C 1902.61,297.155 1904.61,296.322 1906.5,295.5 Z"/></g>
<g><path style="opacity:1" fill="#f7b0b4" d="M 1580.5,307.5 C 1581.48,310.962 1581.81,314.629 1581.5,318.5C 1576.64,318.819 1571.97,318.486 1567.5,317.5C 1571.83,317.5 1576.17,317.5 1580.5,317.5C 1580.5,314.167 1580.5,310.833 1580.5,307.5 Z"/></g>
<g><path style="opacity:1" fill="#f7b1b4" d="M 1642.5,307.5 C 1643.48,310.962 1643.81,314.629 1643.5,318.5C 1638.31,318.821 1633.31,318.487 1628.5,317.5C 1633.17,317.5 1637.83,317.5 1642.5,317.5C 1642.5,314.167 1642.5,310.833 1642.5,307.5 Z"/></g>
<g><path style="opacity:0.925" fill="#000054" d="M 974.5,406.5 C 983.96,406.056 992.627,408.389 1000.5,413.5C 1002.62,415.451 1004.12,417.785 1005,420.5C 1005.5,424.486 1005.67,428.486 1005.5,432.5C 1001.17,432.5 996.833,432.5 992.5,432.5C 992.548,423.717 988.048,419.384 979,419.5C 968.518,419.314 963.518,424.314 964,434.5C 965.458,436.96 967.291,439.127 969.5,441C 977.045,444.939 984.712,448.606 992.5,452C 1007.45,461.611 1010.95,474.444 1003,490.5C 996.416,498.53 987.916,502.197 977.5,501.5C 966.025,501.512 956.192,497.512 948,489.5C 948.568,484.724 951.068,481.058 955.5,478.5C 961.87,484.435 969.37,488.102 978,489.5C 990.494,487.806 994.828,481.14 991,469.5C 987.778,466.612 984.278,464.112 980.5,462C 969.169,458.432 959.669,452.266 952,443.5C 945.702,422.761 953.202,410.427 974.5,406.5 Z"/></g>
<g><path style="opacity:0.95" fill="#000054" d="M 463.5,408.5 C 469.509,408.334 475.509,408.501 481.5,409C 482.931,409.465 484.097,410.299 485,411.5C 485.058,432.542 485.725,453.542 487,474.5C 490.393,484.041 497.227,488.708 507.5,488.5C 518.585,488.579 525.419,483.245 528,472.5C 528.023,451.744 528.689,431.078 530,410.5C 530.75,409.874 531.584,409.374 532.5,409C 538.491,408.501 544.491,408.334 550.5,408.5C 550.5,412.5 550.5,416.5 550.5,420.5C 547.881,420.232 545.381,420.565 543,421.5C 542.667,438.833 542.333,456.167 542,473.5C 538.376,492.784 526.709,502.117 507,501.5C 489.514,501.989 478.18,493.989 473,477.5C 472.796,458.469 472.296,439.469 471.5,420.5C 468.833,420.5 466.167,420.5 463.5,420.5C 463.5,416.5 463.5,412.5 463.5,408.5 Z"/></g>
<g><path style="opacity:0.934" fill="#000054" d="M 566.5,408.5 C 571.214,408.173 575.88,408.507 580.5,409.5C 595.913,431.326 611.08,453.326 626,475.5C 625.922,464.356 625.755,453.189 625.5,442C 625.384,431.777 625.884,421.611 627,411.5C 627.833,410.667 628.667,409.833 629.5,409C 635.825,408.5 642.158,408.334 648.5,408.5C 648.5,412.5 648.5,416.5 648.5,420.5C 645.289,420.012 642.456,420.679 640,422.5C 639.5,448.498 639.333,474.498 639.5,500.5C 635.486,500.666 631.486,500.499 627.5,500C 611.384,478.27 595.884,456.104 581,433.5C 580.667,454.5 580.333,475.5 580,496.5C 578.992,498.259 577.492,499.426 575.5,500C 569.843,500.499 564.176,500.666 558.5,500.5C 558.5,496.5 558.5,492.5 558.5,488.5C 561.119,488.768 563.619,488.435 566,487.5C 566.5,461.169 566.667,434.835 566.5,408.5 Z"/></g>
<g><path style="opacity:0.952" fill="#000054" d="M 661.5,408.5 C 671.833,408.5 682.167,408.5 692.5,408.5C 692.5,412.5 692.5,416.5 692.5,420.5C 689.5,420.5 686.5,420.5 683.5,420.5C 683.5,443.167 683.5,465.833 683.5,488.5C 686.5,488.5 689.5,488.5 692.5,488.5C 692.5,492.5 692.5,496.5 692.5,500.5C 682.167,500.5 671.833,500.5 661.5,500.5C 661.5,496.5 661.5,492.5 661.5,488.5C 664.5,488.5 667.5,488.5 670.5,488.5C 670.5,465.833 670.5,443.167 670.5,420.5C 667.5,420.5 664.5,420.5 661.5,420.5C 661.5,416.5 661.5,412.5 661.5,408.5 Z"/></g>
<g><path style="opacity:0.93" fill="#000054" d="M 699.5,408.5 C 703.846,408.334 708.179,408.501 712.5,409C 714.286,409.785 715.786,410.951 717,412.5C 725.286,435.404 733.286,458.404 741,481.5C 749.073,457.614 757.74,433.947 767,410.5C 767.75,409.874 768.584,409.374 769.5,409C 774.155,408.501 778.821,408.334 783.5,408.5C 783.5,412.5 783.5,416.5 783.5,420.5C 780.453,419.855 778.287,420.855 777,423.5C 767.667,448.833 758.333,474.167 749,499.5C 743.928,500.471 738.762,500.805 733.5,500.5C 724.299,474.423 714.799,448.423 705,422.5C 703.556,420.845 701.722,420.178 699.5,420.5C 699.5,416.5 699.5,412.5 699.5,408.5 Z"/></g>
<g><path style="opacity:0.938" fill="#000054" d="M 789.5,408.5 C 809.169,408.333 828.836,408.5 848.5,409C 850.333,409.5 851.5,410.667 852,412.5C 852.499,418.157 852.666,423.824 852.5,429.5C 848.167,429.5 843.833,429.5 839.5,429.5C 839.777,426.552 839.444,423.719 838.5,421C 829.84,420.5 821.173,420.334 812.5,420.5C 812.5,429.5 812.5,438.5 812.5,447.5C 822.833,447.5 833.167,447.5 843.5,447.5C 843.5,451.5 843.5,455.5 843.5,459.5C 833.167,459.5 822.833,459.5 812.5,459.5C 812.182,469.083 812.515,478.583 813.5,488C 822.833,488.667 832.167,488.667 841.5,488C 843.314,485.519 843.98,482.685 843.5,479.5C 847.833,479.5 852.167,479.5 856.5,479.5C 856.804,485.577 856.304,491.577 855,497.5C 854.097,498.701 852.931,499.535 851.5,500C 835.5,500.667 819.5,500.667 803.5,500C 802.234,499.691 801.067,499.191 800,498.5C 798.518,472.589 798.018,446.589 798.5,420.5C 795.5,420.5 792.5,420.5 789.5,420.5C 789.5,416.5 789.5,412.5 789.5,408.5 Z"/></g>
<g><path style="opacity:0.937" fill="#000054" d="M 864.5,408.5 C 880.503,408.333 896.503,408.5 912.5,409C 923,411.5 929.5,418 932,428.5C 935.075,442.84 930.242,453.34 917.5,460C 922.46,468.753 927.294,477.587 932,486.5C 934.228,488.113 936.728,488.78 939.5,488.5C 939.5,492.5 939.5,496.5 939.5,500.5C 934.07,500.839 928.736,500.339 923.5,499C 917.085,487.502 910.419,476.169 903.5,465C 898.177,464.501 892.844,464.334 887.5,464.5C 887.5,476.5 887.5,488.5 887.5,500.5C 882.833,500.5 878.167,500.5 873.5,500.5C 873.5,473.833 873.5,447.167 873.5,420.5C 870.5,420.5 867.5,420.5 864.5,420.5C 864.5,416.5 864.5,412.5 864.5,408.5 Z M 887.5,420.5 C 895.253,420.104 902.92,420.604 910.5,422C 915.997,424.988 918.663,429.654 918.5,436C 917.936,445.563 912.936,450.896 903.5,452C 898.177,452.499 892.844,452.666 887.5,452.5C 887.5,441.833 887.5,431.167 887.5,420.5 Z"/></g>
<g><path style="opacity:0.952" fill="#000054" d="M 1019.5,408.5 C 1029.83,408.5 1040.17,408.5 1050.5,408.5C 1050.5,412.5 1050.5,416.5 1050.5,420.5C 1047.5,420.5 1044.5,420.5 1041.5,420.5C 1041.5,443.167 1041.5,465.833 1041.5,488.5C 1044.5,488.5 1047.5,488.5 1050.5,488.5C 1050.5,492.5 1050.5,496.5 1050.5,500.5C 1040.17,500.5 1029.83,500.5 1019.5,500.5C 1019.5,496.5 1019.5,492.5 1019.5,488.5C 1022.5,488.5 1025.5,488.5 1028.5,488.5C 1028.5,465.833 1028.5,443.167 1028.5,420.5C 1025.5,420.5 1022.5,420.5 1019.5,420.5C 1019.5,416.5 1019.5,412.5 1019.5,408.5 Z"/></g>
<g><path style="opacity:0.935" fill="#000054" d="M 1061.5,408.5 C 1085.5,408.333 1109.5,408.5 1133.5,409C 1135.72,409.652 1136.89,411.152 1137,413.5C 1137.5,418.823 1137.67,424.156 1137.5,429.5C 1133.17,429.5 1128.83,429.5 1124.5,429.5C 1124.78,426.552 1124.44,423.719 1123.5,421C 1117.18,420.5 1110.84,420.334 1104.5,420.5C 1104.5,447.167 1104.5,473.833 1104.5,500.5C 1099.83,500.5 1095.17,500.5 1090.5,500.5C 1090.5,473.833 1090.5,447.167 1090.5,420.5C 1084.16,420.334 1077.82,420.5 1071.5,421C 1070.56,423.719 1070.22,426.552 1070.5,429.5C 1066.5,429.5 1062.5,429.5 1058.5,429.5C 1058.33,423.491 1058.5,417.491 1059,411.5C 1059.7,410.309 1060.53,409.309 1061.5,408.5 Z"/></g>
<g><path style="opacity:0.926" fill="#000054" d="M 1141.5,408.5 C 1145.85,408.334 1150.18,408.501 1154.5,409C 1156.62,410.122 1158.46,411.622 1160,413.5C 1166.67,424.833 1173.33,436.167 1180,447.5C 1186.91,435.335 1194.08,423.335 1201.5,411.5C 1202.67,410.416 1204,409.583 1205.5,409C 1209.49,408.501 1213.49,408.334 1217.5,408.5C 1217.5,412.5 1217.5,416.5 1217.5,420.5C 1213.73,419.822 1210.89,421.156 1209,424.5C 1201.67,436.5 1194.33,448.5 1187,460.5C 1186.5,473.829 1186.33,487.163 1186.5,500.5C 1181.83,500.5 1177.17,500.5 1172.5,500.5C 1172.67,486.829 1172.5,473.163 1172,459.5C 1164.46,446.244 1156.29,433.41 1147.5,421C 1145.53,420.505 1143.53,420.338 1141.5,420.5C 1141.5,416.5 1141.5,412.5 1141.5,408.5 Z"/></g>
</svg>
